<svg width="30" height="30" viewBox="0 0 30 30" fill="none" xmlns="http://www.w3.org/2000/svg">
<path d="M23.75 23.75V10H6.25V23.75H23.75ZM20 1.25H22.5V3.75H23.75C24.413 3.75 25.0489 4.01339 25.5178 4.48223C25.9866 4.95107 26.25 5.58696 26.25 6.25V23.75C26.25 25.1375 25.1375 26.25 23.75 26.25H6.25C5.58696 26.25 4.95107 25.9866 4.48223 25.5178C4.01339 25.0489 3.75 24.413 3.75 23.75V6.25C3.75 4.875 4.875 3.75 6.25 3.75H7.5V1.25H10V3.75H20V1.25ZM15 21.4625L14.275 20.8C11.7 18.4625 10 16.925 10 15.0375C10 13.5 11.2125 12.2875 12.75 12.2875C13.625 12.2875 14.45 12.6875 15 13.325C15.55 12.6875 16.375 12.2875 17.25 12.2875C18.7875 12.2875 20 13.5 20 15.0375C20 16.925 18.3 18.4625 15.725 20.8L15 21.4625Z" fill="#FF427F"/>
</svg>
