<svg width="100" height="100" viewBox="0 0 100 100" fill="none" xmlns="http://www.w3.org/2000/svg">
<g clip-path="url(#clip0_39_344)">
<path fill-rule="evenodd" clip-rule="evenodd" d="M0 50C0 36.7392 5.26784 24.0215 14.6447 14.6447C24.0215 5.26784 36.7392 0 50 0C63.2608 0 75.9785 5.26784 85.3553 14.6447C94.7322 24.0215 100 36.7392 100 50C100 63.2608 94.7322 75.9785 85.3553 85.3553C75.9785 94.7322 63.2608 100 50 100C36.7392 100 24.0215 94.7322 14.6447 85.3553C5.26784 75.9785 0 63.2608 0 50ZM47.1467 71.4L75.9333 35.4133L70.7333 31.2533L46.1867 61.9267L28.8 47.44L24.5333 52.56L47.1467 71.4Z" fill="#FF427F"/>
</g>
<defs>
<clipPath id="clip0_39_344">
<rect width="100" height="100" fill="white"/>
</clipPath>
</defs>
</svg>
