<svg width="23" height="23" viewBox="0 0 23 23" fill="none" xmlns="http://www.w3.org/2000/svg">
<g clip-path="url(#clip0_21_211)">
<path fill-rule="evenodd" clip-rule="evenodd" d="M1.31696 7.23155C-0.920722 10.3115 -0.237965 14.6222 2.84194 16.8599C2.97863 16.9592 3.11834 17.0532 3.26084 17.1417C3.44048 17.2534 3.6766 17.1983 3.78824 17.0186C3.89987 16.839 3.84475 16.6029 3.66511 16.4912C3.53827 16.4124 3.41389 16.3287 3.29213 16.2403C0.554434 14.2512 -0.0524614 10.4194 1.93659 7.68173C3.2311 5.89999 5.35328 4.97184 7.50532 5.18555C7.71578 5.20645 7.90334 5.05278 7.92424 4.84232C7.94514 4.63185 7.79147 4.4443 7.58101 4.42339C5.16094 4.18306 2.77304 5.22743 1.31696 7.23155Z" fill="#FF427F"/>
<path fill-rule="evenodd" clip-rule="evenodd" d="M4.46812 19.8367C6.7058 22.9166 11.0166 23.5994 14.0965 21.3617C14.26 21.2429 14.4175 21.1177 14.5689 20.9863C14.7286 20.8477 14.7457 20.6058 14.6071 20.4461C14.4685 20.2863 14.2266 20.2692 14.0669 20.4079C13.9322 20.5248 13.7919 20.6363 13.6463 20.7421C10.9086 22.7311 7.0768 22.1242 5.08775 19.3865C4.07242 17.989 3.70615 16.2634 4.03292 14.6014C4.07373 14.3939 3.93857 14.1926 3.73105 14.1518C3.52352 14.111 3.32221 14.2461 3.28141 14.4537C2.91396 16.3225 3.32629 18.2651 4.46812 19.8367Z" fill="#FF427F"/>
<path fill-rule="evenodd" clip-rule="evenodd" d="M17.4301 20.7349C21.0508 19.5585 23.0322 15.6697 21.8558 12.0491C21.7915 11.8512 21.7187 11.6572 21.6378 11.4674C21.5548 11.2729 21.3298 11.1824 21.1353 11.2654C20.9408 11.3484 20.8503 11.5734 20.9333 11.7679C21.0053 11.9368 21.0701 12.1095 21.1274 12.2857C22.1731 15.5041 20.4118 18.9608 17.1934 20.0065C14.3205 20.94 11.2083 19.6374 9.84752 16.9765C9.75122 16.7882 9.5205 16.7136 9.3322 16.8099C9.1439 16.9062 9.06931 17.1369 9.16561 17.3252C10.697 20.3199 14.1979 21.7851 17.4301 20.7349Z" fill="#FF427F"/>
<path fill-rule="evenodd" clip-rule="evenodd" d="M22.29 8.68488C22.29 4.87791 19.2039 1.79175 15.3969 1.79175C15.1865 1.79175 14.9772 1.80119 14.7694 1.81995C14.5588 1.83897 14.4035 2.02515 14.4225 2.23579C14.4415 2.44643 14.6277 2.60177 14.8383 2.58275C15.0232 2.56605 15.2095 2.55765 15.3969 2.55765C18.7809 2.55765 21.5241 5.30091 21.5241 8.68488C21.5241 10.6998 20.545 12.5496 18.9303 13.6914C18.7576 13.8135 18.7166 14.0525 18.8387 14.2251C18.9608 14.3978 19.1998 14.4388 19.3725 14.3167C21.1881 13.0329 22.29 10.9511 22.29 8.68488Z" fill="#FF427F"/>
<path fill-rule="evenodd" clip-rule="evenodd" d="M4.37393 5.00158C5.41963 1.78322 8.87634 0.0219471 12.0947 1.06765C14.5068 1.85139 16.1624 4.02459 16.3183 6.51355C16.3316 6.72464 16.5134 6.88504 16.7245 6.87181C16.9356 6.85858 17.096 6.67674 17.0827 6.46566C16.9073 3.66564 15.0448 1.2209 12.3313 0.339235C8.71072 -0.837184 4.82193 1.14425 3.64551 4.7649C3.57153 4.99258 3.50961 5.22268 3.4598 5.45455C3.41537 5.66133 3.54698 5.86497 3.75375 5.9094C3.96053 5.95383 4.16418 5.82222 4.20861 5.61544C4.25293 5.40916 4.30804 5.20435 4.37393 5.00158Z" fill="#FF427F"/>
<path fill-rule="evenodd" clip-rule="evenodd" d="M9.26981 6.77014C5.88584 6.77014 3.14258 9.5134 3.14258 12.8974C3.14258 16.2813 5.88584 19.0246 9.26981 19.0246C10.0483 19.0246 10.8072 18.8792 11.5166 18.5995C11.7133 18.5219 11.8099 18.2995 11.7323 18.1027C11.6548 17.906 11.4324 17.8094 11.2356 17.887C10.6153 18.1315 9.95168 18.2587 9.26981 18.2587C6.30884 18.2587 3.90849 15.8583 3.90849 12.8974C3.90849 9.93639 6.30884 7.53605 9.26981 7.53605C9.94335 7.53605 10.5992 7.66011 11.213 7.89891C11.4101 7.9756 11.632 7.87797 11.7087 7.68087C11.7854 7.48376 11.6878 7.26181 11.4907 7.18513C10.7887 6.91201 10.0388 6.77014 9.26981 6.77014Z" fill="#FF427F"/>
<path fill-rule="evenodd" clip-rule="evenodd" d="M7.35498 12.8971C7.35498 16.2811 10.0982 19.0244 13.4822 19.0244C16.8662 19.0244 19.6095 16.2811 19.6095 12.8971C19.6095 11.1788 18.898 9.57349 17.6679 8.42243C17.5135 8.27792 17.2712 8.28596 17.1267 8.44039C16.9821 8.59481 16.9902 8.83715 17.1446 8.98166C18.2215 9.98937 18.8436 11.393 18.8436 12.8971C18.8436 15.8581 16.4432 18.2585 13.4822 18.2585C10.5212 18.2585 8.12088 15.8581 8.12088 12.8971C8.12088 12.6314 8.14019 12.3681 8.17837 12.1088C8.20919 11.8996 8.06454 11.705 7.8553 11.6742C7.64606 11.6434 7.45146 11.788 7.42064 11.9972C7.37702 12.2935 7.35498 12.594 7.35498 12.8971Z" fill="#FF427F"/>
<path fill-rule="evenodd" clip-rule="evenodd" d="M11.5675 3.70646C14.5285 3.70646 16.9288 6.1068 16.9288 9.06778C16.9288 10.7994 16.1026 12.3925 14.7314 13.3965L13.9301 13.8958C13.7507 14.0078 13.6961 14.2441 13.8081 14.4234C13.9202 14.6028 14.1564 14.6574 14.3358 14.5454L15.1605 14.0303C16.75 12.8677 17.6947 11.0462 17.6947 9.06778C17.6947 5.68381 14.9515 2.94055 11.5675 2.94055C8.50434 2.94055 5.92345 5.20147 5.50037 8.20623C5.47088 8.41566 5.61675 8.60935 5.82619 8.63884C6.03562 8.66832 6.2293 8.52245 6.25879 8.31302C6.62883 5.685 8.88738 3.70646 11.5675 3.70646Z" fill="#FF427F"/>
<path fill-rule="evenodd" clip-rule="evenodd" d="M15.7799 11.3655C15.7799 9.03906 13.8939 7.15308 11.5675 7.15308C9.24096 7.15308 7.35498 9.03906 7.35498 11.3655C7.35498 13.692 9.24096 15.578 11.5675 15.578C13.8939 15.578 15.7799 13.692 15.7799 11.3655ZM8.12088 11.3655C8.12088 9.46206 9.66396 7.91898 11.5675 7.91898C13.471 7.91898 15.014 9.46206 15.014 11.3655C15.014 13.269 13.471 14.8121 11.5675 14.8121C9.66396 14.8121 8.12088 13.269 8.12088 11.3655Z" fill="#FF427F"/>
<path fill-rule="evenodd" clip-rule="evenodd" d="M13.865 11.3655C13.865 10.0965 12.8363 9.06775 11.5673 9.06775C10.2983 9.06775 9.26953 10.0965 9.26953 11.3655C9.26953 12.6345 10.2983 13.6632 11.5673 13.6632C12.8363 13.6632 13.865 12.6345 13.865 11.3655ZM10.0355 11.3655C10.0355 10.5195 10.7213 9.83365 11.5673 9.83365C12.4133 9.83365 13.0991 10.5195 13.0991 11.3655C13.0991 12.2115 12.4133 12.8973 11.5673 12.8973C10.7213 12.8973 10.0355 12.2115 10.0355 11.3655Z" fill="#FF427F"/>
<path fill-rule="evenodd" clip-rule="evenodd" d="M8.75809 12.2843C8.56898 14.1524 9.59222 15.5779 11.5674 15.5779V14.812C10.0901 14.812 9.37314 13.8132 9.5201 12.3614C9.66062 10.9733 10.5555 9.83365 11.5674 9.83365V9.06775C10.0959 9.06775 8.9339 10.5475 8.75809 12.2843Z" fill="#FF427F"/>
</g>
<defs>
<clipPath id="clip0_21_211">
<rect width="23" height="23" fill="white"/>
</clipPath>
</defs>
</svg>
