<svg width="40" height="40" viewBox="0 0 40 40" fill="none" xmlns="http://www.w3.org/2000/svg">
<rect width="40" height="40" rx="20" fill="#EC5598"/>
<g clip-path="url(#clip0_129_48)">
<path fill-rule="evenodd" clip-rule="evenodd" d="M29.4958 15.4525C29.648 14.952 29.4958 14.5835 28.7671 14.5835H26.3608C25.7485 14.5835 25.4662 14.9016 25.3131 15.2527C25.3131 15.2527 24.0893 18.1823 22.3559 20.0853C21.7949 20.6372 21.5401 20.8122 21.2339 20.8122C21.0808 20.8122 20.8508 20.6372 20.8508 20.1357V15.4525C20.8508 14.8512 20.6821 14.5835 20.1724 14.5835H16.3884C16.0062 14.5835 15.7761 14.8622 15.7761 15.1271C15.7761 15.6963 16.6433 15.8283 16.7322 17.4307V20.9122C16.7322 21.6757 16.5919 21.8142 16.2857 21.8142C15.4699 21.8142 13.4853 18.8707 12.3074 15.5029C12.0792 14.8475 11.8482 14.5835 11.2331 14.5835H8.825C8.1375 14.5835 8 14.9016 8 15.2527C8 15.8778 8.81583 18.9835 11.7996 23.0911C13.7888 25.8961 16.5892 27.4168 19.1403 27.4168C20.6702 27.4168 20.859 27.0795 20.859 26.4974V24.3772C20.859 23.7016 21.0038 23.5668 21.4888 23.5668C21.8463 23.5668 22.4577 23.7428 23.8858 25.0949C25.5175 26.6982 25.7861 27.4168 26.7046 27.4168H29.1108C29.7983 27.4168 30.143 27.0795 29.945 26.4122C29.7268 25.7485 28.9477 24.7851 27.9146 23.642C27.3536 22.9912 26.5121 22.2899 26.2563 21.9388C25.8998 21.4887 26.0015 21.288 26.2563 20.8874C26.2563 20.8874 29.1897 16.8302 29.4949 15.4525H29.4958Z" fill="white"/>
</g>
<defs>
<clipPath id="clip0_129_48">
<rect width="22" height="22" fill="white" transform="translate(8 10)"/>
</clipPath>
</defs>
</svg>
