<svg width="40" height="40" viewBox="0 0 40 40" fill="none" xmlns="http://www.w3.org/2000/svg">
<rect width="40" height="40" rx="20" fill="#EC5598"/>
<path fill-rule="evenodd" clip-rule="evenodd" d="M15.465 9.06649C16.638 9.01249 17.012 9.00049 20 9.00049C22.988 9.00049 23.362 9.01349 24.534 9.06649C25.706 9.11949 26.506 9.30649 27.206 9.57749C27.939 9.85449 28.604 10.2875 29.154 10.8475C29.714 11.3965 30.146 12.0605 30.422 12.7945C30.694 13.4945 30.88 14.2945 30.934 15.4645C30.988 16.6395 31 17.0135 31 20.0005C31 22.9885 30.987 23.3625 30.934 24.5355C30.881 25.7055 30.694 26.5055 30.422 27.2055C30.146 27.9396 29.7133 28.6047 29.154 29.1545C28.604 29.7145 27.939 30.1465 27.206 30.4225C26.506 30.6945 25.706 30.8805 24.536 30.9345C23.362 30.9885 22.988 31.0005 20 31.0005C17.012 31.0005 16.638 30.9875 15.465 30.9345C14.295 30.8815 13.495 30.6945 12.795 30.4225C12.0609 30.1465 11.3958 29.7137 10.846 29.1545C10.2864 28.6052 9.85331 27.9404 9.577 27.2065C9.306 26.5065 9.12 25.7065 9.066 24.5365C9.012 23.3615 9 22.9875 9 20.0005C9 17.0125 9.013 16.6385 9.066 15.4665C9.119 14.2945 9.306 13.4945 9.577 12.7945C9.85372 12.0606 10.2871 11.3958 10.847 10.8465C11.396 10.287 12.0605 9.85393 12.794 9.57749C13.494 9.30649 14.294 9.12049 15.464 9.06649H15.465ZM24.445 11.0465C23.285 10.9935 22.937 10.9825 20 10.9825C17.063 10.9825 16.715 10.9935 15.555 11.0465C14.482 11.0955 13.9 11.2745 13.512 11.4255C12.999 11.6255 12.632 11.8625 12.247 12.2475C11.882 12.6025 11.6012 13.0348 11.425 13.5125C11.274 13.9005 11.095 14.4825 11.046 15.5555C10.993 16.7155 10.982 17.0635 10.982 20.0005C10.982 22.9375 10.993 23.2855 11.046 24.4455C11.095 25.5185 11.274 26.1005 11.425 26.4885C11.601 26.9655 11.882 27.3985 12.247 27.7535C12.602 28.1185 13.035 28.3995 13.512 28.5755C13.9 28.7265 14.482 28.9055 15.555 28.9545C16.715 29.0075 17.062 29.0185 20 29.0185C22.938 29.0185 23.285 29.0075 24.445 28.9545C25.518 28.9055 26.1 28.7265 26.488 28.5755C27.001 28.3755 27.368 28.1385 27.753 27.7535C28.118 27.3985 28.399 26.9655 28.575 26.4885C28.726 26.1005 28.905 25.5185 28.954 24.4455C29.007 23.2855 29.018 22.9375 29.018 20.0005C29.018 17.0635 29.007 16.7155 28.954 15.5555C28.905 14.4825 28.726 13.9005 28.575 13.5125C28.375 12.9995 28.138 12.6325 27.753 12.2475C27.3979 11.8826 26.9657 11.6017 26.488 11.4255C26.1 11.2745 25.518 11.0955 24.445 11.0465V11.0465ZM18.595 23.3915C19.3797 23.7181 20.2534 23.7622 21.0669 23.5162C21.8805 23.2702 22.5834 22.7494 23.0556 22.0427C23.5278 21.3361 23.7401 20.4874 23.656 19.6416C23.572 18.7958 23.197 18.0055 22.595 17.4055C22.2112 17.022 21.7472 16.7283 21.2363 16.5456C20.7255 16.363 20.1804 16.2958 19.6405 16.3491C19.1006 16.4024 18.5792 16.5747 18.1138 16.8536C17.6485 17.1326 17.2507 17.5112 16.9493 17.9623C16.6479 18.4134 16.4502 18.9258 16.3705 19.4624C16.2908 19.9991 16.3312 20.5468 16.4885 21.066C16.6459 21.5852 16.9165 22.0631 17.2807 22.4652C17.645 22.8673 18.0938 23.1837 18.595 23.3915ZM16.002 16.0025C16.527 15.4775 17.1503 15.061 17.8363 14.7768C18.5223 14.4927 19.2575 14.3465 20 14.3465C20.7425 14.3465 21.4777 14.4927 22.1637 14.7768C22.8497 15.061 23.473 15.4775 23.998 16.0025C24.523 16.5275 24.9395 17.1508 25.2236 17.8368C25.5078 18.5228 25.654 19.258 25.654 20.0005C25.654 20.743 25.5078 21.4782 25.2236 22.1642C24.9395 22.8502 24.523 23.4735 23.998 23.9985C22.9377 25.0588 21.4995 25.6545 20 25.6545C18.5005 25.6545 17.0623 25.0588 16.002 23.9985C14.9417 22.9382 14.346 21.5 14.346 20.0005C14.346 18.5009 14.9417 17.0628 16.002 16.0025V16.0025ZM26.908 15.1885C27.0381 15.0658 27.1423 14.9182 27.2143 14.7545C27.2863 14.5908 27.3248 14.4143 27.3274 14.2354C27.33 14.0566 27.2967 13.879 27.2295 13.7133C27.1622 13.5476 27.0624 13.397 26.936 13.2705C26.8095 13.1441 26.6589 13.0442 26.4932 12.977C26.3275 12.9098 26.1499 12.8765 25.9711 12.8791C25.7922 12.8817 25.6157 12.9201 25.452 12.9922C25.2883 13.0642 25.1407 13.1684 25.018 13.2985C24.7793 13.5515 24.6486 13.8876 24.6537 14.2354C24.6588 14.5832 24.7992 14.9154 25.0452 15.1613C25.2911 15.4073 25.6233 15.5477 25.9711 15.5528C26.3189 15.5579 26.655 15.4272 26.908 15.1885V15.1885Z" fill="white"/>
</svg>
